<svg xmlns="http://www.w3.org/2000/svg" width="233" height="41" viewBox="0 0 233 41" fill="none" crosspilot=""><script xmlns=""/><script xmlns=""/>
<rect width="25" height="40" fill="url(#paint0_linear)"/>
<path d="M19.0225 8.42629C19.4833 9.1769 20.3844 10.8985 20.3025 11.7801C20.2001 12.8821 19.0737 15.2297 20.8145 16.8108C22.2072 18.0757 24.1596 19.957 24.9617 20.7396C25.1153 21.2666 24.8491 22.4069 23.3745 22.9435C21.9 23.4801 22.5895 24.8919 23.1185 25.5307C23.3575 25.93 23.5486 26.8435 22.4017 27.3034C22.1969 27.4184 21.8727 27.4791 21.7361 27.4951L21.5825 27.9263C22.2481 27.9902 23.5793 28.4054 23.5793 29.5553C23.4155 29.7469 22.726 30.1143 22.4017 30.274C22.214 30.3698 21.9512 30.7818 22.4017 31.6634C22.9649 32.7654 23.2209 33.3882 22.7089 34.6339C22.2993 35.6305 19.8758 35.8157 18.7153 35.7838C16.6161 35.688 12.2129 35.5538 11.3937 35.7838C10.3697 36.0713 8.68005 36.9337 7.86084 40M19.0225 8.42629C18.0838 8.02703 14.435 8.01425 7.34884 11.1572C7.34884 14.559 7.34884 25.2432 13.1857 32.3342C11.8033 33.2285 7.43076 35.1705 1 35.7838M19.0225 8.42629C19.4321 8.55405 20.108 8.43587 19.5345 6.94103C18.8177 5.07248 15.304 0.5 13 0.5" stroke="black"/>
<path d="M40.67 15.97H40.37V31H37.01V10.06H41.84L47.33 25.09H47.63V10.06H50.99V31H46.16L40.67 15.97ZM55.4783 31V10.06H68.7083V13.3H59.4083V18.76H68.3783V22H59.4083V27.76H68.7083V31H55.4783Z" fill="#F35C07"/>
<path d="M84.1166 21.31L84.2966 15.25H84.0266L79.9766 26.02L75.9266 15.25H75.6566L75.8366 21.31V31H72.4166V10.06H77.0966L80.0066 17.77H80.2166L83.1566 10.06H87.5366V31H84.1166V21.31ZM97.9648 31.36C96.6048 31.36 95.4248 31.12 94.4248 30.64C93.4248 30.14 92.5948 29.43 91.9348 28.51C91.2948 27.59 90.8148 26.46 90.4948 25.12C90.1948 23.78 90.0448 22.25 90.0448 20.53C90.0448 18.83 90.1948 17.31 90.4948 15.97C90.8148 14.61 91.2948 13.47 91.9348 12.55C92.5948 11.63 93.4248 10.93 94.4248 10.45C95.4248 9.95 96.6048 9.7 97.9648 9.7C100.685 9.7 102.685 10.65 103.965 12.55C105.245 14.45 105.885 17.11 105.885 20.53C105.885 23.95 105.245 26.61 103.965 28.51C102.685 30.41 100.685 31.36 97.9648 31.36ZM97.9648 28.15C98.6648 28.15 99.2548 28.02 99.7348 27.76C100.215 27.48 100.595 27.09 100.875 26.59C101.175 26.09 101.385 25.48 101.505 24.76C101.645 24.02 101.715 23.2 101.715 22.3V18.73C101.715 16.93 101.435 15.51 100.875 14.47C100.335 13.43 99.3648 12.91 97.9648 12.91C96.5648 12.91 95.5848 13.43 95.0248 14.47C94.4848 15.51 94.2148 16.93 94.2148 18.73V22.33C94.2148 24.13 94.4848 25.55 95.0248 26.59C95.5848 27.63 96.5648 28.15 97.9648 28.15ZM109.953 31V10.06H113.883V27.76H123.153V31H109.953ZM134.481 31.36C131.741 31.36 129.711 30.42 128.391 28.54C127.091 26.66 126.441 23.99 126.441 20.53C126.441 17.09 127.091 14.43 128.391 12.55C129.711 10.65 131.741 9.7 134.481 9.7C135.521 9.7 136.431 9.84 137.211 10.12C138.011 10.4 138.701 10.79 139.281 11.29C139.861 11.77 140.341 12.36 140.721 13.06C141.101 13.74 141.401 14.49 141.621 15.31L138.021 16.33C137.881 15.85 137.721 15.4 137.541 14.98C137.361 14.56 137.131 14.2 136.851 13.9C136.591 13.58 136.261 13.34 135.861 13.18C135.461 13 134.981 12.91 134.421 12.91C133.061 12.91 132.081 13.43 131.481 14.47C130.901 15.51 130.611 16.93 130.611 18.73V22.33C130.611 24.13 130.901 25.55 131.481 26.59C132.081 27.63 133.061 28.15 134.421 28.15C134.981 28.15 135.461 28.07 135.861 27.91C136.261 27.73 136.591 27.49 136.851 27.19C137.131 26.87 137.361 26.5 137.541 26.08C137.721 25.66 137.881 25.21 138.021 24.73L141.621 25.75C141.401 26.57 141.101 27.33 140.721 28.03C140.341 28.71 139.861 29.3 139.281 29.8C138.701 30.28 138.011 30.66 137.211 30.94C136.431 31.22 135.521 31.36 134.481 31.36ZM154.99 22H148.87V31H144.94V10.06H148.87V18.76H154.99V10.06H158.92V31H154.99V22ZM163.258 31V28.06H167.968V13H163.258V10.06H176.578V13H171.868V28.06H176.578V31H163.258ZM187.906 31.33C186.866 31.33 186.126 31.11 185.686 30.67C185.246 30.23 185.026 29.69 185.026 29.05V28.15C185.026 27.51 185.246 26.97 185.686 26.53C186.126 26.09 186.866 25.87 187.906 25.87C188.946 25.87 189.686 26.09 190.126 26.53C190.566 26.97 190.786 27.51 190.786 28.15V29.05C190.786 29.69 190.566 30.23 190.126 30.67C189.686 31.11 188.946 31.33 187.906 31.33ZM202.685 10.06V23.11C202.685 23.89 202.705 24.59 202.745 25.21C202.805 25.83 202.935 26.36 203.135 26.8C203.355 27.22 203.675 27.55 204.095 27.79C204.535 28.03 205.135 28.15 205.895 28.15C206.655 28.15 207.245 28.03 207.665 27.79C208.105 27.55 208.425 27.22 208.625 26.8C208.845 26.36 208.975 25.83 209.015 25.21C209.075 24.59 209.105 23.89 209.105 23.11V10.06H213.035V22.51C213.035 23.99 212.945 25.28 212.765 26.38C212.585 27.48 212.235 28.4 211.715 29.14C211.195 29.88 210.465 30.44 209.525 30.82C208.605 31.18 207.395 31.36 205.895 31.36C204.395 31.36 203.175 31.18 202.235 30.82C201.315 30.44 200.595 29.88 200.075 29.14C199.555 28.4 199.205 27.48 199.025 26.38C198.845 25.28 198.755 23.99 198.755 22.51V10.06H202.685ZM231.443 31H216.323V27.55L226.733 13.3H216.683V10.06H231.053V13.51L220.673 27.76H231.443V31Z" fill="black"/>
<defs>
<linearGradient id="paint0_linear" x1="12.5" y1="0" x2="12.5" y2="40" gradientUnits="userSpaceOnUse">
<stop stop-color="#FE8F67"/>
<stop offset="1" stop-color="#C4A2FC"/>
</linearGradient>
</defs>
</svg>